<svg id="visual" viewBox="0 0 960 540" width="960" height="540" xmlns="http://www.w3.org/2000/svg" xmlns:xlink="http://www.w3.org/1999/xlink" version="1.1"><rect x="0" y="0" width="960" height="540" fill="#001220"></rect><path d="M0 371L20 363.7C40 356.3 80 341.7 120 332.8C160 324 200 321 240 326.7C280 332.3 320 346.7 360 354.8C400 363 440 365 480 367.3C520 369.7 560 372.3 600 373.7C640 375 680 375 720 366.3C760 357.7 800 340.3 840 335.3C880 330.3 920 337.7 940 341.3L960 345L960 541L940 541C920 541 880 541 840 541C800 541 760 541 720 541C680 541 640 541 600 541C560 541 520 541 480 541C440 541 400 541 360 541C320 541 280 541 240 541C200 541 160 541 120 541C80 541 40 541 20 541L0 541Z" fill="#fa7268"></path><path d="M0 392L20 390.7C40 389.3 80 386.7 120 389.5C160 392.3 200 400.7 240 402.7C280 404.7 320 400.3 360 400C400 399.7 440 403.3 480 399.3C520 395.3 560 383.7 600 385.3C640 387 680 402 720 399.8C760 397.7 800 378.3 840 377.3C880 376.3 920 393.7 940 402.3L960 411L960 541L940 541C920 541 880 541 840 541C800 541 760 541 720 541C680 541 640 541 600 541C560 541 520 541 480 541C440 541 400 541 360 541C320 541 280 541 240 541C200 541 160 541 120 541C80 541 40 541 20 541L0 541Z" fill="#ef5f67"></path><path d="M0 436L20 439.8C40 443.7 80 451.3 120 449.7C160 448 200 437 240 429.2C280 421.3 320 416.7 360 417.7C400 418.7 440 425.3 480 430.8C520 436.3 560 440.7 600 443.2C640 445.7 680 446.3 720 438.8C760 431.3 800 415.7 840 414C880 412.3 920 424.7 940 430.8L960 437L960 541L940 541C920 541 880 541 840 541C800 541 760 541 720 541C680 541 640 541 600 541C560 541 520 541 480 541C440 541 400 541 360 541C320 541 280 541 240 541C200 541 160 541 120 541C80 541 40 541 20 541L0 541Z" fill="#e34c67"></path><path d="M0 473L20 468.5C40 464 80 455 120 455.5C160 456 200 466 240 472C280 478 320 480 360 475.3C400 470.7 440 459.3 480 460C520 460.7 560 473.3 600 473.3C640 473.3 680 460.7 720 458.2C760 455.7 800 463.3 840 467.3C880 471.3 920 471.7 940 471.8L960 472L960 541L940 541C920 541 880 541 840 541C800 541 760 541 720 541C680 541 640 541 600 541C560 541 520 541 480 541C440 541 400 541 360 541C320 541 280 541 240 541C200 541 160 541 120 541C80 541 40 541 20 541L0 541Z" fill="#d53867"></path><path d="M0 505L20 503.3C40 501.7 80 498.3 120 500.2C160 502 200 509 240 511.7C280 514.3 320 512.7 360 506C400 499.3 440 487.7 480 487.2C520 486.7 560 497.3 600 501.7C640 506 680 504 720 499.2C760 494.3 800 486.7 840 482.2C880 477.7 920 476.3 940 475.7L960 475L960 541L940 541C920 541 880 541 840 541C800 541 760 541 720 541C680 541 640 541 600 541C560 541 520 541 480 541C440 541 400 541 360 541C320 541 280 541 240 541C200 541 160 541 120 541C80 541 40 541 20 541L0 541Z" fill="#c62368"></path></svg>