<svg viewBox="0 0 896 504" height="504" width="896" xmlns="http://www.w3.org/2000/svg" version="1.1"><rect x="0" y="0" width="896" height="504" fill="#0a041eff"></rect><g transform-origin="448 252" transform="scale(-1, 1)"><linearGradient id="linear-gradient-rd"><stop offset="0%" stop-color="#ba3158ff" stop-opacity="100%"></stop><stop offset="100%" stop-color="#790f20ff" stop-opacity="100%"></stop></linearGradient><filter id="shadow-rd" x="-20%" width="150%" y="-20%" height="150%"><feDropShadow dx="-4" dy="0" stdDeviation="10" flood-color="#00000061"></feDropShadow></filter><path d="M0 0 0,182.8526734373998 C 5.786883399056892,178.73134296146472 61.73043772054588,140.07865159553788 72.33604248821115,131.33604248821115 C 82.94164725587642,122.59343338088443 123.74168054081302,84.07694299487272 132.57005959581585,73.57005959581583 C 141.3984386508187,63.063176196758945 178.68112298935205,5.885604767665268 182.6907806757465,0 L0 0Z" fill="none" stroke-linecap="round" stroke-width="1" style="transition: all 0.4s cubic-bezier(0.16, 1, 0.3, 1) 0s; fill: url(&quot;#linear-gradient-rd&quot;);" filter="url(#shadow-rd)"></path></g><g transform-origin="448 252" transform="scale(1, -1)"><linearGradient id="linear-gradient-rd"><stop offset="0%" stop-color="#ba3158ff" stop-opacity="100%"></stop><stop offset="100%" stop-color="#790f20ff" stop-opacity="100%"></stop></linearGradient><filter id="shadow-rd" x="-20%" width="150%" y="-20%" height="150%"><feDropShadow dx="-4" dy="0" stdDeviation="10" flood-color="#00000061"></feDropShadow></filter><path d="M0 0 0,182.8016254929267 C 5.885604767665265,178.7831002211578 63.077955505716304,141.42208554515045 73.57005959581583,132.57005959581585 C 84.06216368591537,123.71803364648125 122.46940848073388,82.75690589390943 131.15130112624416,72.15130112624416 C 139.83319377175445,61.545696358578894 178.0183243416184,5.772104090099534 182.09371766469442,0 L0 0Z" fill="none" stroke-linecap="round" stroke-width="1" style="transition: all 0.4s cubic-bezier(0.16, 1, 0.3, 1) 0s; fill: url(&quot;#linear-gradient-rd&quot;);" filter="url(#shadow-rd)"></path></g></svg>