<svg viewBox="0 0 800 600" height="600" width="800" xmlns="http://www.w3.org/2000/svg" version="1.1"><g transform-origin="center" transform="scale(1, 1) rotate(0)"><rect x="0" y="0" width="800" height="600" fill="#002438"></rect><linearGradient id="linear-gradient-r6"><stop offset="0%" stop-color="#ff0005ff" stop-opacity="100%"></stop><stop offset="100%" stop-color="#ff0092ff" stop-opacity="100%"></stop></linearGradient><path d="M0 433.38962654164055 0,433.38962654164055 C 32,433.01377903837704 96,426.4348642510361 160,431.51038902532304 C 224,436.58591379960995 256,459.58336060550056 320,458.76725041307503 C 384,457.9511402206495 416,438.0932789661921 480,427.4298380631953 C 544,416.7663971601985 576,423.622326126229 640,405.450045898091 C 704,387.277765669953 768,350.34475871762254 800,336.56843692250544" fill="none" stroke-linecap="round" stroke-width="1" style="transition: all 0.4s cubic-bezier(0.16, 1, 0.3, 1) 0s;" stroke="url(#linear-gradient-r6)"></path><path d="M0 512.0160586195997 0,512.0160586195997 C 32,518.4844779638572 95.99999999999999,545.3265248975715 160,544.3581553408875 C 224,543.3897857842035 256,519.8270996688399 320,507.1742108361795 C 384,494.5213220035191 416,502.6563421945553 480,481.0937111775856 C 544,459.5310801606159 576,411.1096115858293 640,399.3610557513311 C 704,387.61249991683286 768,417.75295675434165 800,422.3509320050943" fill="none" stroke-linecap="round" stroke-width="1" style="transition: all 0.4s cubic-bezier(0.16, 1, 0.3, 1) 0s;" stroke="url(#linear-gradient-r6)"></path><path d="M0 629.9490602687001 0,629.9490602687001 C 31.999999999999996,621.3429649367929 96,601.5609203714878 160,586.9185836091638 C 224,572.2762468468397 256,581.6903582628817 320,556.7373764570802 C 384,531.7843946512788 416,475.74948762133715 480,462.1536745801568 C 544,448.55786153897645 576,481.8758219812065 640,488.7583112511784 C 704,495.64080052115025 768,495.0045589942485 800,496.56612093001604" fill="none" stroke-linecap="round" stroke-width="1" style="transition: all 0.4s cubic-bezier(0.16, 1, 0.3, 1) 0s;" stroke="url(#linear-gradient-r6)"></path></g></svg>