<svg viewBox="0 0 896 504" height="504" width="896" xmlns="http://www.w3.org/2000/svg" version="1.1"><g transform-origin="center" transform="scale(1, 1) rotate(0)"><rect x="0" y="0" width="896" height="504" fill="#151a1aff"></rect><linearGradient id="linear-gradient-rc"><stop offset="0%" stop-color="#ff0005ff" stop-opacity="100%"></stop><stop offset="100%" stop-color="#de0454ff" stop-opacity="100%"></stop></linearGradient><filter id="shadow-rc" x="0" width="100%" y="-20%" height="150%"><feDropShadow dx="-5" dy="0" stdDeviation="10" flood-color="#00000061"></feDropShadow></filter><path d="M0 0 0,353.1802031219937 C 35.839999999999996,352.8739154551551 107.52,347.51259086726236 179.2,351.64876478780064 C 250.88,355.7849387083389 286.72,374.5261416277662 358.4,373.8610727246851 C 430.0799999999999,373.19600382160394 465.9199999999999,357.0133288291656 537.5999999999999,348.323420272395 C 609.2799999999999,339.6335117156245 645.1199999999999,345.2205821864494 716.8,330.41152994083245 C 788.48,315.60247769521555 860.16,285.50483322361487 896,274.2781590443105 L896 504 L0 504Z" fill="none" stroke-linecap="round" stroke-width="1" style="transition: all 0.4s cubic-bezier(0.16, 1, 0.3, 1) 0s; fill: url(&quot;#linear-gradient-rc&quot;);" filter="url(#shadow-rc)"></path><path d="M0 0 0,405.3192111839851 C 35.84,410.43970414916674 107.52,431.68825115581353 179.2,430.9216760098934 C 250.88,430.1551008639733 286.72,411.5025426309308 358.4,401.4863354543845 C 430.0799999999999,391.4701282778383 465.9199999999999,397.9099262320002 537.5999999999999,380.84064012716215 C 609.2799999999999,363.7713540223241 645.1199999999999,325.44022921343645 716.8,316.13990493019423 C 788.48,306.839580646952 860.16,330.6991959547997 896,334.33901871095105 L896 504 L0 504Z" fill="none" stroke-linecap="round" stroke-width="1" style="transition: all 0.4s cubic-bezier(0.16, 1, 0.3, 1) 0s; fill: url(&quot;#linear-gradient-rc&quot;);" filter="url(#shadow-rc)"></path><path d="M0 0 0,487.98227929510176 C 35.839999999999996,481.3156735633562 107.52,465.991756432696 179.2,454.649250636374 C 250.88,443.30674484005203 286.72,450.5992702775511 358.4,431.2697503134919 C 430.0799999999999,411.9402303494327 465.9199999999999,368.53347990377495 537.5999999999999,358.001650816078 C 609.2799999999999,347.469821728381 645.1199999999999,373.27916934631145 716.8,378.610604875007 C 788.48,383.9420404037026 860.16,383.44918374264614 896,384.65882845955593 L896 504 L0 504Z" fill="none" stroke-linecap="round" stroke-width="1" style="transition: all 0.4s cubic-bezier(0.16, 1, 0.3, 1) 0s; fill: url(&quot;#linear-gradient-rc&quot;);" filter="url(#shadow-rc)"></path></g></svg>