<svg viewBox="0 0 896 504" height="504" width="896" xmlns="http://www.w3.org/2000/svg" version="1.1"><g transform-origin="center" transform="scale(1, 1) rotate(0)"><rect x="0" y="0" width="896" height="504" fill="#00121dff"></rect><linearGradient id="linear-gradient-r8"><stop offset="0%" stop-color="#ff0005ff" stop-opacity="100%"></stop><stop offset="100%" stop-color="#de0454ff" stop-opacity="100%"></stop></linearGradient><path d="M0 287.9777040840872 0,287.9777040840872 C 35.84,287.7279618326649 107.52,283.35642024561395 179.2,286.7289928269759 C 250.88,290.1015654083379 286.71999999999997,305.38285394264017 358.4,304.84056699089706 C 430.08,304.298280039154 465.9199999999999,291.10317581455035 537.5999999999999,284.01755806826054 C 609.2799999999999,276.9319403219707 645.1199999999999,281.487551628951 716.8,269.412478259448 C 788.48,257.337404889945 860.16,232.79624862848596 896,223.64219122074545" fill="none" stroke-linecap="round" stroke="url(#linear-gradient-r8)" stroke-width="1" style="transition: all 0.4s cubic-bezier(0.16, 1, 0.3, 1) 0s;"></path><path d="M0 340.39943922316036 0,340.39943922316036 C 35.84,344.69978543374935 107.51999999999998,362.54496347068743 179.2,361.9011702761054 C 250.88,361.2573770815233 286.71999999999997,345.5923896163156 358.4,337.18047325025003 C 430.08,328.7685568841845 465.9199999999999,334.17689567450185 537.5999999999999,319.8415884457777 C 609.2799999999999,305.5062812170535 645.1199999999999,273.314633178403 716.8,265.5039371066292 C 788.48,257.6932410348555 860.16,277.7312738908529 896,280.78810808690884" fill="none" stroke-linecap="round" stroke="url(#linear-gradient-r8)" stroke-width="1" style="transition: all 0.4s cubic-bezier(0.16, 1, 0.3, 1) 0s;"></path><path d="M0 418.96177356131375 0,418.96177356131375 C 35.839999999999996,413.2380965354989 107.52,400.08160341808076 179.2,390.3433884322395 C 250.88,380.6051734463983 286.71999999999997,386.86623972005276 358.4,370.27069863210744 C 430.08,353.6751575441621 465.9199999999999,316.4078838687415 537.5999999999999,307.365682992513 C 609.2799999999999,298.3234821162845 645.1199999999999,320.48234015532705 716.8,325.05969425096487 C 788.48,329.6370483466027 860.16,329.2139016267546 896,330.252453470702" fill="none" stroke-linecap="round" stroke="url(#linear-gradient-r8)" stroke-width="1" style="transition: all 0.4s cubic-bezier(0.16, 1, 0.3, 1) 0s;"></path></g></svg>